{
	"asset":{
		"generator":"Khronos glTF Blender I/O v4.4.56",
		"version":"2.0"
	},
	"scene":0,
	"scenes":[
		{
			"name":"Scene",
			"nodes":[
				0
			]
		}
	],
	"nodes":[
		{
			"mesh":0,
			"name":"grp1",
			"scale":[
				0.009999999776482582,
				0.009999999776482582,
				0.009999999776482582
			],
			"translation":[
				0,
				0.056204985827207565,
				0
			]
		}
	],
	"meshes":[
		{
			"name":"\u30e1\u30c3\u30b7\u30e5",
			"primitives":[
				{
					"attributes":{
						"POSITION":0,
						"NORMAL":1,
						"TEXCOORD_0":2
					},
					"indices":3
				}
			]
		}
	],
	"accessors":[
		{
			"bufferView":0,
			"componentType":5126,
			"count":6184,
			"max":[
				72.22313690185547,
				332.753173828125,
				484.0404357910156
			],
			"min":[
				-72.22100830078125,
				1.528290033340454,
				-277.95947265625
			],
			"type":"VEC3"
		},
		{
			"bufferView":1,
			"componentType":5126,
			"count":6184,
			"type":"VEC3"
		},
		{
			"bufferView":2,
			"componentType":5126,
			"count":6184,
			"type":"VEC2"
		},
		{
			"bufferView":3,
			"componentType":5123,
			"count":6246,
			"type":"SCALAR"
		}
	],
	"bufferViews":[
		{
			"buffer":0,
			"byteLength":74208,
			"byteOffset":0,
			"target":34962
		},
		{
			"buffer":0,
			"byteLength":74208,
			"byteOffset":74208,
			"target":34962
		},
		{
			"buffer":0,
			"byteLength":49472,
			"byteOffset":148416,
			"target":34962
		},
		{
			"buffer":0,
			"byteLength":12492,
			"byteOffset":197888,
			"target":34963
		}
	],
	"buffers":[
		{
			"byteLength":210380,
			"uri":"Cat.bin"
		}
	]
}
